<svg xmlns="http://www.w3.org/2000/svg" viewBox="0 0 95.98 110.98"><defs><style>.cls-1{fill:#70441c;}.cls-2{fill:#89c983;}.cls-3{fill:#ed3c49;}</style></defs><title>appel_128</title><g id="Layer_2" data-name="Layer 2"><g id="Layer_1-2" data-name="Layer 1"><path class="cls-1" d="M33.95,9A21.75,21.75,0,0,1,47,31C47,32.05,48.62,32,48.69,31A23.37,23.37,0,0,0,34.77,7.58c-1-.43-1.79,1-.83,1.42Z"/><path class="cls-2" d="M66.09,8C62.47,9.21,58.85,8.44,55.17,9c-4.87.79-5.88,5.34-5.48,9.6.17,1.82.5,3.65.67,5.46A11.43,11.43,0,0,1,56,22.76c3.51-.19,7.37.06,10.48-1.88,5.94-3.71,6.72-11.18,6.8-17.68A17,17,0,0,1,66.09,8Z"/><path class="cls-2" d="M73.51.3A15.55,15.55,0,0,1,63.32,7c-3.7.63-7.78-.51-11.23,1.3-8.27,4.35-1,15.74-4.25,22.22-.48.95,1,1.61,1.5.67a11.15,11.15,0,0,0,1.12-5.12c2.43-2.29,6.64-1.7,9.72-1.87,3.41-.2,6.54-1,9.1-3.38C74.81,15.68,75,7.74,75,.71A.83.83,0,0,0,73.51.3Zm-7,20.58c-3.1,1.94-7,1.69-10.48,1.88a11.43,11.43,0,0,0-5.69,1.35c-.16-1.81-.5-3.64-.67-5.46-.4-4.26.61-8.81,5.48-9.6,3.68-.6,7.3.17,10.92-1.05A17,17,0,0,0,73.33,3.2C73.25,9.7,72.47,17.16,66.52,20.88Z"/><path class="cls-3" d="M48.25,30.73c-7-3.62-14.46-7.33-22.35-7C14.47,24.32,4.8,33.85,1.55,44.83-1.31,54.46,0,65,3.61,74.35S12.91,92.14,19,100.16a34.39,34.39,0,0,0,6.9,7.4,12.5,12.5,0,0,0,9.54,2.55c3.85-.76,7.12-3.92,11.05-3.81s7.1,3.52,11,4.43c4.78,1.12,9.57-1.76,13.26-5,8.55-7.53,14.54-17.58,19.05-28C93,70.16,95.56,62.21,95.94,54s-1.62-16.7-6.74-23.11S75.57,20.56,67.51,22c-4.23.78-8.06,2.91-11.81,5-2.63,1.47-4.82,2.21-7.44,3.68"/></g></g></svg>