<svg xmlns="http://www.w3.org/2000/svg" viewBox="0 0 75.83 122.7"><defs><style>.cls-1{fill:#53ba65;}.cls-2{fill:#c0964c;}</style></defs><title>boom_128</title><g id="Layer_2" data-name="Layer 2"><g id="Layer_1-2" data-name="Layer 1"><polygon class="cls-1" points="75.83 89.2 0 89.2 37.91 0 37.91 0 75.83 89.2"/><path class="cls-2" d="M39.17,121.49V24.71a1.25,1.25,0,0,0-2.5,0v96.78a1.25,1.25,0,0,0,2.5,0Z"/><path class="cls-2" d="M38.8,65.86,51,53.62a1.25,1.25,0,0,0-1.77-1.77L37,64.09a1.25,1.25,0,0,0,1.77,1.77Z"/><path class="cls-2" d="M38.8,43.72l-7.35-7.35a1.25,1.25,0,0,0-1.77,1.77L37,45.49a1.25,1.25,0,0,0,1.77-1.77Z"/><path class="cls-2" d="M38.8,78.35,25.3,64.85a1.25,1.25,0,0,0-1.77,1.77L37,80.12a1.25,1.25,0,0,0,1.77-1.77Z"/><path class="cls-2" d="M38.8,74.07l9.32-8.48c1.19-1.09-.58-2.85-1.77-1.77L37,72.3c-1.19,1.09.58,2.85,1.77,1.77Z"/><path class="cls-2" d="M38.8,54.66,26.09,42a1.25,1.25,0,0,0-1.77,1.77L37,56.43a1.25,1.25,0,0,0,1.77-1.77Z"/></g></g></svg>