<svg xmlns="http://www.w3.org/2000/svg" viewBox="0 0 128 128.22"><defs><style>.cls-1{fill:#03697d;}.cls-2{fill:#524640;}.cls-3{fill:#675a54;}.cls-4{fill:#c46a41;}.cls-5{fill:#837068;}.cls-6,.cls-7{fill:#fff;}.cls-6{opacity:0.8;}.cls-7{font-size:16px;font-family:Futura-CondensedMedium, Futura;}.cls-8{letter-spacing:-0.01em;}.cls-9{letter-spacing:0.02em;}</style></defs><title>logo_128</title><g id="Layer_2" data-name="Layer 2"><g id="Layer_1-2" data-name="Layer 1"><rect class="cls-1" width="128" height="128.22"/><path class="cls-2" d="M26.93,51.69H25a2.24,2.24,0,0,0,0,4.48h1.92a2.24,2.24,0,0,0,0-4.48Zm-2.56,3.2a1,1,0,1,1,1-1A1,1,0,0,1,24.37,54.89Z"/><path class="cls-2" d="M103.57,51.69h-1.92a2.24,2.24,0,0,0,0,4.48h1.92a2.24,2.24,0,1,0,0-4.48Zm.64,3.2a1,1,0,1,1,1-1A1,1,0,0,1,104.21,54.89Z"/><rect class="cls-3" x="25.97" y="49.13" width="76.8" height="39.68"/><rect class="cls-2" x="25.97" y="84.97" width="76.8" height="3.84"/><rect class="cls-2" x="25.97" y="83.05" width="76.8" height="0.64"/><rect class="cls-2" x="32.37" y="83.69" width="0.64" height="1.28"/><rect class="cls-2" x="95.89" y="83.69" width="0.64" height="1.28"/><rect class="cls-2" x="25.97" y="49.13" width="76.8" height="0.64"/><rect class="cls-2" x="25.97" y="50.09" width="76.8" height="0.64"/><rect class="cls-2" x="25.97" y="51.05" width="76.8" height="0.64"/><path class="cls-2" d="M26,57.29h5.12a3.84,3.84,0,0,1,3.84,3.84V75.21a3.84,3.84,0,0,1-3.84,3.84H26a0,0,0,0,1,0,0V57.29A0,0,0,0,1,26,57.29Z"/><circle class="cls-4" cx="27.73" cy="61.93" r="0.64"/><circle class="cls-4" cx="27.73" cy="63.85" r="0.64"/><circle class="cls-4" cx="27.73" cy="65.77" r="0.64"/><circle class="cls-4" cx="27.73" cy="67.69" r="0.64"/><circle class="cls-4" cx="27.73" cy="69.61" r="0.64"/><circle class="cls-4" cx="27.73" cy="71.53" r="0.64"/><circle class="cls-4" cx="27.73" cy="73.45" r="0.64"/><circle class="cls-4" cx="27.73" cy="75.37" r="0.64"/><circle class="cls-4" cx="29.49" cy="63.85" r="0.64"/><circle class="cls-4" cx="29.49" cy="65.77" r="0.64"/><circle class="cls-4" cx="29.49" cy="67.69" r="0.64"/><circle class="cls-4" cx="29.49" cy="69.61" r="0.64"/><circle class="cls-4" cx="29.49" cy="71.53" r="0.64"/><circle class="cls-4" cx="29.49" cy="73.45" r="0.64"/><circle class="cls-4" cx="31.25" cy="65.77" r="0.64"/><circle class="cls-4" cx="31.25" cy="67.69" r="0.64"/><circle class="cls-4" cx="31.25" cy="69.61" r="0.64"/><circle class="cls-4" cx="31.25" cy="71.53" r="0.64"/><path class="cls-2" d="M93.81,57.29h5.12a3.84,3.84,0,0,1,3.84,3.84V75.21a3.84,3.84,0,0,1-3.84,3.84H93.81a0,0,0,0,1,0,0V57.29A0,0,0,0,1,93.81,57.29Z" transform="translate(196.57 136.35) rotate(180)"/><circle class="cls-4" cx="101.01" cy="74.41" r="0.64"/><circle class="cls-4" cx="101.01" cy="72.49" r="0.64"/><circle class="cls-4" cx="101.01" cy="70.57" r="0.64"/><circle class="cls-4" cx="101.01" cy="68.65" r="0.64"/><circle class="cls-4" cx="101.01" cy="66.73" r="0.64"/><circle class="cls-4" cx="101.01" cy="64.81" r="0.64"/><circle class="cls-4" cx="101.01" cy="62.89" r="0.64"/><circle class="cls-4" cx="101.01" cy="60.97" r="0.64"/><circle class="cls-4" cx="99.25" cy="72.49" r="0.64"/><circle class="cls-4" cx="99.25" cy="70.57" r="0.64"/><circle class="cls-4" cx="99.25" cy="68.65" r="0.64"/><circle class="cls-4" cx="99.25" cy="66.73" r="0.64"/><circle class="cls-4" cx="99.25" cy="64.81" r="0.64"/><circle class="cls-4" cx="99.25" cy="62.89" r="0.64"/><circle class="cls-4" cx="97.65" cy="70.57" r="0.64"/><circle class="cls-4" cx="97.65" cy="68.65" r="0.64"/><circle class="cls-4" cx="97.65" cy="66.73" r="0.64"/><circle class="cls-4" cx="97.65" cy="64.81" r="0.64"/><rect class="cls-5" x="25.97" y="45.29" width="76.8" height="3.84"/><rect class="cls-5" x="25.97" y="41.45" width="42.24" height="3.84"/><rect class="cls-5" x="71.57" y="41.45" width="10.72" height="3.84"/><rect class="cls-2" x="71.57" y="41.45" width="0.64" height="3.84"/><rect class="cls-2" x="72.69" y="41.45" width="0.64" height="3.84"/><rect class="cls-2" x="73.81" y="41.45" width="0.64" height="3.84"/><rect class="cls-2" x="74.93" y="41.45" width="0.64" height="3.84"/><rect class="cls-2" x="76.05" y="41.45" width="0.64" height="3.84"/><rect class="cls-2" x="77.17" y="41.45" width="0.64" height="3.84"/><rect class="cls-2" x="78.29" y="41.45" width="0.64" height="3.84"/><rect class="cls-2" x="79.41" y="41.45" width="0.64" height="3.84"/><rect class="cls-2" x="80.53" y="41.45" width="0.64" height="3.84"/><rect class="cls-2" x="81.65" y="41.45" width="0.64" height="3.84"/><rect class="cls-2" x="35.57" y="42.73" width="10.24" height="5.12"/><rect class="cls-5" x="36.85" y="44.01" width="7.68" height="2.56"/><rect class="cls-3" x="84.85" y="42.73" width="10.24" height="2.56"/><rect class="cls-2" x="84.85" y="43.37" width="10.24" height="0.64"/><rect class="cls-2" x="86.13" y="41.45" width="7.68" height="1.28"/><rect class="cls-2" x="36.21" y="53.13" width="42.24" height="28.8"/><rect class="cls-5" x="37.97" y="54.73" width="38.72" height="25.6"/><circle class="cls-2" cx="86.61" cy="75.05" r="5.12"/><circle class="cls-3" cx="86.61" cy="75.05" r="2.24"/><polygon class="cls-3" points="87.25 72.33 85.97 72.33 86.61 71.05 86.61 71.05 87.25 72.33"/><polygon class="cls-3" points="83.94 74.41 83.94 75.69 82.66 75.05 82.66 75.05 83.94 74.41"/><polygon class="cls-3" points="89.33 74.41 89.33 75.69 90.61 75.05 90.61 75.05 89.33 74.41"/><polygon class="cls-3" points="87.25 77.72 85.97 77.72 86.61 79 86.61 79 87.25 77.72"/><circle class="cls-2" cx="86.61" cy="75.05" r="0.96"/><polygon class="cls-6" points="47.57 54.73 37.97 64.49 37.97 63.69 46.93 54.73 47.57 54.73"/><polygon class="cls-6" points="45.49 54.73 37.97 62.41 37.97 61.61 44.85 54.73 45.49 54.73"/><polygon class="cls-6" points="76.69 70.73 66.93 80.33 67.73 80.33 76.69 71.37 76.69 70.73"/><polygon class="cls-6" points="76.69 72.81 69.01 80.33 69.81 80.33 76.69 73.45 76.69 72.81"/><text class="cls-7" transform="translate(45.32 104.68)">B<tspan class="cls-8" x="6.59" y="0">e</tspan><tspan x="12.38" y="0">’ </tspan><tspan class="cls-9" x="19.38" y="0">T</tspan><tspan x="24.99" y="0">im</tspan></text></g></g></svg>