<svg xmlns="http://www.w3.org/2000/svg" viewBox="0 0 512 512.89"><defs><style>.cls-1{fill:#03697d;}.cls-2{fill:#524640;}.cls-3{fill:#675a54;}.cls-4{fill:#c46a41;}.cls-5{fill:#837068;}.cls-6,.cls-7{fill:#fff;}.cls-6{opacity:0.8;}.cls-7{font-size:63.89px;font-family:Futura-CondensedMedium, Futura;}.cls-8{letter-spacing:-0.01em;}.cls-9{letter-spacing:0em;}.cls-10{letter-spacing:0.02em;}</style></defs><title>logo_512</title><g id="Layer_2" data-name="Layer 2"><g id="Layer_1-2" data-name="Layer 1"><rect class="cls-1" width="512" height="512.89"/><path class="cls-2" d="M107.52,206.86H99.86a8.94,8.94,0,0,0,0,17.89h7.67a8.94,8.94,0,1,0,0-17.89ZM97.3,219.64a3.83,3.83,0,1,1,3.83-3.83A3.83,3.83,0,0,1,97.3,219.64Z"/><path class="cls-2" d="M413.55,206.86h-7.67a8.94,8.94,0,0,0,0,17.89h7.67a8.94,8.94,0,1,0,0-17.89Zm2.56,12.78a3.83,3.83,0,1,1,3.83-3.83A3.83,3.83,0,0,1,416.11,219.64Z"/><rect class="cls-3" x="103.69" y="196.64" width="306.67" height="158.44"/><rect class="cls-2" x="103.69" y="339.75" width="306.67" height="15.33"/><rect class="cls-2" x="103.69" y="332.08" width="306.67" height="2.56"/><rect class="cls-2" x="129.24" y="334.64" width="2.56" height="5.11"/><rect class="cls-2" x="382.88" y="334.64" width="2.56" height="5.11"/><rect class="cls-2" x="103.69" y="196.64" width="306.67" height="2.56"/><rect class="cls-2" x="103.69" y="200.47" width="306.67" height="2.56"/><rect class="cls-2" x="103.69" y="204.3" width="306.67" height="2.56"/><path class="cls-2" d="M103.69,229.22h20.44a15.33,15.33,0,0,1,15.33,15.33v56.22a15.33,15.33,0,0,1-15.33,15.33H103.69a0,0,0,0,1,0,0V229.22A0,0,0,0,1,103.69,229.22Z"/><circle class="cls-4" cx="110.72" cy="247.75" r="2.56"/><circle class="cls-4" cx="110.72" cy="255.41" r="2.56"/><circle class="cls-4" cx="110.72" cy="263.08" r="2.56"/><circle class="cls-4" cx="110.72" cy="270.75" r="2.56"/><circle class="cls-4" cx="110.72" cy="278.41" r="2.56"/><circle class="cls-4" cx="110.72" cy="286.08" r="2.56"/><circle class="cls-4" cx="110.72" cy="293.75" r="2.56"/><circle class="cls-4" cx="110.72" cy="301.41" r="2.56"/><circle class="cls-4" cx="117.74" cy="255.41" r="2.56"/><circle class="cls-4" cx="117.74" cy="263.08" r="2.56"/><circle class="cls-4" cx="117.74" cy="270.75" r="2.56"/><circle class="cls-4" cx="117.74" cy="278.41" r="2.56"/><circle class="cls-4" cx="117.74" cy="286.08" r="2.56"/><circle class="cls-4" cx="117.74" cy="293.75" r="2.56"/><circle class="cls-4" cx="124.77" cy="263.08" r="2.56"/><circle class="cls-4" cx="124.77" cy="270.75" r="2.56"/><circle class="cls-4" cx="124.77" cy="278.41" r="2.56"/><circle class="cls-4" cx="124.77" cy="286.08" r="2.56"/><path class="cls-2" d="M374.58,229.22H395a15.33,15.33,0,0,1,15.33,15.33v56.22A15.33,15.33,0,0,1,395,316.11H374.58a0,0,0,0,1,0,0V229.22A0,0,0,0,1,374.58,229.22Z" transform="translate(784.93 545.33) rotate(180)"/><circle class="cls-4" cx="403.33" cy="297.58" r="2.56"/><circle class="cls-4" cx="403.33" cy="289.91" r="2.56"/><circle class="cls-4" cx="403.33" cy="282.25" r="2.56"/><circle class="cls-4" cx="403.33" cy="274.58" r="2.56"/><circle class="cls-4" cx="403.33" cy="266.91" r="2.56"/><circle class="cls-4" cx="403.33" cy="259.25" r="2.56"/><circle class="cls-4" cx="403.33" cy="251.58" r="2.56"/><circle class="cls-4" cx="403.33" cy="243.91" r="2.56"/><circle class="cls-4" cx="396.3" cy="289.91" r="2.56"/><circle class="cls-4" cx="396.3" cy="282.25" r="2.56"/><circle class="cls-4" cx="396.3" cy="274.58" r="2.56"/><circle class="cls-4" cx="396.3" cy="266.91" r="2.56"/><circle class="cls-4" cx="396.3" cy="259.25" r="2.56"/><circle class="cls-4" cx="396.3" cy="251.58" r="2.56"/><circle class="cls-4" cx="389.91" cy="282.25" r="2.56"/><circle class="cls-4" cx="389.91" cy="274.58" r="2.56"/><circle class="cls-4" cx="389.91" cy="266.91" r="2.56"/><circle class="cls-4" cx="389.91" cy="259.25" r="2.56"/><rect class="cls-5" x="103.69" y="181.3" width="306.67" height="15.33"/><rect class="cls-5" x="103.69" y="165.97" width="168.67" height="15.33"/><rect class="cls-5" x="285.77" y="165.97" width="42.81" height="15.33"/><rect class="cls-2" x="285.77" y="165.97" width="2.56" height="15.33"/><rect class="cls-2" x="290.25" y="165.97" width="2.56" height="15.33"/><rect class="cls-2" x="294.72" y="165.97" width="2.56" height="15.33"/><rect class="cls-2" x="299.19" y="165.97" width="2.56" height="15.33"/><rect class="cls-2" x="303.66" y="165.97" width="2.56" height="15.33"/><rect class="cls-2" x="308.13" y="165.97" width="2.56" height="15.33"/><rect class="cls-2" x="312.61" y="165.97" width="2.56" height="15.33"/><rect class="cls-2" x="317.08" y="165.97" width="2.56" height="15.33"/><rect class="cls-2" x="321.55" y="165.97" width="2.56" height="15.33"/><rect class="cls-2" x="326.02" y="165.97" width="2.56" height="15.33"/><rect class="cls-2" x="142.02" y="171.08" width="40.89" height="20.44"/><rect class="cls-5" x="147.13" y="176.19" width="30.67" height="10.22"/><rect class="cls-3" x="338.8" y="171.08" width="40.89" height="10.22"/><rect class="cls-2" x="338.8" y="173.64" width="40.89" height="2.56"/><rect class="cls-2" x="343.91" y="165.97" width="30.67" height="5.11"/><rect class="cls-2" x="144.58" y="212.61" width="168.67" height="115"/><rect class="cls-5" x="151.61" y="219" width="154.61" height="102.22"/><circle class="cls-2" cx="345.83" cy="300.14" r="20.44"/><circle class="cls-3" cx="345.83" cy="300.14" r="8.94"/><polygon class="cls-3" points="348.38 289.27 343.27 289.27 345.83 284.16 345.83 284.16 348.38 289.27"/><polygon class="cls-3" points="335.18 297.58 335.18 302.69 330.07 300.14 330.07 300.14 335.18 297.58"/><polygon class="cls-3" points="356.69 297.58 356.69 302.69 361.8 300.14 361.8 300.14 356.69 297.58"/><polygon class="cls-3" points="348.38 310.79 343.27 310.79 345.83 315.9 345.83 315.9 348.38 310.79"/><circle class="cls-2" cx="345.83" cy="300.14" r="3.83"/><polygon class="cls-6" points="189.94 219 151.61 257.97 151.61 254.78 187.38 219 189.94 219"/><polygon class="cls-6" points="181.63 219 151.61 249.66 151.61 246.47 179.08 219 181.63 219"/><polygon class="cls-6" points="306.22 282.89 267.25 321.22 270.44 321.22 306.22 285.44 306.22 282.89"/><polygon class="cls-6" points="306.22 291.19 275.55 321.22 278.75 321.22 306.22 293.75 306.22 291.19"/><text class="cls-7" transform="translate(180.95 418.44)">B<tspan class="cls-8" x="26.3" y="0">e</tspan><tspan class="cls-9" x="49.41" y="0">’ </tspan><tspan class="cls-10" x="77.4" y="0">T</tspan><tspan x="99.8" y="0">im</tspan></text></g></g></svg>