<svg xmlns="http://www.w3.org/2000/svg" viewBox="0 0 191.92 192.25"><defs><style>.cls-1{fill:#03697d;}.cls-2{fill:#524640;}.cls-3{fill:#675a54;}.cls-4{fill:#c46a41;}.cls-5{fill:#837068;}.cls-6,.cls-7{fill:#fff;}.cls-6{opacity:0.8;}.cls-7{font-size:23.95px;font-family:Futura-CondensedMedium, Futura;}.cls-8{letter-spacing:-0.01em;}.cls-9{letter-spacing:0em;}.cls-10{letter-spacing:0.02em;}</style></defs><title>logo_192</title><g id="Layer_2" data-name="Layer 2"><g id="Layer_1-2" data-name="Layer 1"><rect class="cls-1" width="191.92" height="192.25"/><path class="cls-2" d="M40.3,77.54H37.43a3.35,3.35,0,0,0,0,6.71H40.3a3.35,3.35,0,0,0,0-6.71Zm-3.83,4.79a1.44,1.44,0,1,1,1.44-1.44A1.44,1.44,0,0,1,36.47,82.33Z"/><path class="cls-2" d="M155,77.54h-2.87a3.35,3.35,0,1,0,0,6.71H155a3.35,3.35,0,0,0,0-6.71Zm1,4.79a1.44,1.44,0,1,1,1.44-1.44A1.44,1.44,0,0,1,156,82.33Z"/><rect class="cls-3" x="38.87" y="73.71" width="114.95" height="59.39"/><rect class="cls-2" x="38.87" y="127.35" width="114.95" height="5.75"/><rect class="cls-2" x="38.87" y="124.48" width="114.95" height="0.96"/><rect class="cls-2" x="48.45" y="125.43" width="0.96" height="1.92"/><rect class="cls-2" x="143.52" y="125.43" width="0.96" height="1.92"/><rect class="cls-2" x="38.87" y="73.71" width="114.95" height="0.96"/><rect class="cls-2" x="38.87" y="75.14" width="114.95" height="0.96"/><rect class="cls-2" x="38.87" y="76.58" width="114.95" height="0.96"/><path class="cls-2" d="M38.87,85.92h7.66a5.75,5.75,0,0,1,5.75,5.75v21.07a5.75,5.75,0,0,1-5.75,5.75H38.87a0,0,0,0,1,0,0V85.92A0,0,0,0,1,38.87,85.92Z"/><circle class="cls-4" cx="41.5" cy="92.86" r="0.96"/><circle class="cls-4" cx="41.5" cy="95.74" r="0.96"/><circle class="cls-4" cx="41.5" cy="98.61" r="0.96"/><circle class="cls-4" cx="41.5" cy="101.49" r="0.96"/><circle class="cls-4" cx="41.5" cy="104.36" r="0.96"/><circle class="cls-4" cx="41.5" cy="107.23" r="0.96"/><circle class="cls-4" cx="41.5" cy="110.11" r="0.96"/><circle class="cls-4" cx="41.5" cy="112.98" r="0.96"/><circle class="cls-4" cx="44.13" cy="95.74" r="0.96"/><circle class="cls-4" cx="44.13" cy="98.61" r="0.96"/><circle class="cls-4" cx="44.13" cy="101.49" r="0.96"/><circle class="cls-4" cx="44.13" cy="104.36" r="0.96"/><circle class="cls-4" cx="44.13" cy="107.23" r="0.96"/><circle class="cls-4" cx="44.13" cy="110.11" r="0.96"/><circle class="cls-4" cx="46.77" cy="98.61" r="0.96"/><circle class="cls-4" cx="46.77" cy="101.49" r="0.96"/><circle class="cls-4" cx="46.77" cy="104.36" r="0.96"/><circle class="cls-4" cx="46.77" cy="107.23" r="0.96"/><path class="cls-2" d="M140.41,85.92h7.66a5.75,5.75,0,0,1,5.75,5.75v21.07a5.75,5.75,0,0,1-5.75,5.75h-7.66a0,0,0,0,1,0,0V85.92A0,0,0,0,1,140.41,85.92Z" transform="translate(294.22 204.41) rotate(180)"/><circle class="cls-4" cx="151.18" cy="111.54" r="0.96"/><circle class="cls-4" cx="151.18" cy="108.67" r="0.96"/><circle class="cls-4" cx="151.18" cy="105.8" r="0.96"/><circle class="cls-4" cx="151.18" cy="102.92" r="0.96"/><circle class="cls-4" cx="151.18" cy="100.05" r="0.96"/><circle class="cls-4" cx="151.18" cy="97.17" r="0.96"/><circle class="cls-4" cx="151.18" cy="94.3" r="0.96"/><circle class="cls-4" cx="151.18" cy="91.43" r="0.96"/><circle class="cls-4" cx="148.55" cy="108.67" r="0.96"/><circle class="cls-4" cx="148.55" cy="105.8" r="0.96"/><circle class="cls-4" cx="148.55" cy="102.92" r="0.96"/><circle class="cls-4" cx="148.55" cy="100.05" r="0.96"/><circle class="cls-4" cx="148.55" cy="97.17" r="0.96"/><circle class="cls-4" cx="148.55" cy="94.3" r="0.96"/><circle class="cls-4" cx="146.15" cy="105.8" r="0.96"/><circle class="cls-4" cx="146.15" cy="102.92" r="0.96"/><circle class="cls-4" cx="146.15" cy="100.05" r="0.96"/><circle class="cls-4" cx="146.15" cy="97.17" r="0.96"/><rect class="cls-5" x="38.87" y="67.96" width="114.95" height="5.75"/><rect class="cls-5" x="38.87" y="62.21" width="63.22" height="5.75"/><rect class="cls-5" x="107.12" y="62.21" width="16.05" height="5.75"/><rect class="cls-2" x="107.12" y="62.21" width="0.96" height="5.75"/><rect class="cls-2" x="108.79" y="62.21" width="0.96" height="5.75"/><rect class="cls-2" x="110.47" y="62.21" width="0.96" height="5.75"/><rect class="cls-2" x="112.15" y="62.21" width="0.96" height="5.75"/><rect class="cls-2" x="113.82" y="62.21" width="0.96" height="5.75"/><rect class="cls-2" x="115.5" y="62.21" width="0.96" height="5.75"/><rect class="cls-2" x="117.18" y="62.21" width="0.96" height="5.75"/><rect class="cls-2" x="118.85" y="62.21" width="0.96" height="5.75"/><rect class="cls-2" x="120.53" y="62.21" width="0.96" height="5.75"/><rect class="cls-2" x="122.2" y="62.21" width="0.96" height="5.75"/><rect class="cls-2" x="53.24" y="64.13" width="15.33" height="7.66"/><rect class="cls-5" x="55.15" y="66.04" width="11.49" height="3.83"/><rect class="cls-3" x="126.99" y="64.13" width="15.33" height="3.83"/><rect class="cls-2" x="126.99" y="65.08" width="15.33" height="0.96"/><rect class="cls-2" x="128.91" y="62.21" width="11.49" height="1.92"/><rect class="cls-2" x="54.19" y="79.69" width="63.22" height="43.11"/><rect class="cls-5" x="56.83" y="82.09" width="57.95" height="38.32"/><circle class="cls-2" cx="129.63" cy="112.5" r="7.66"/><circle class="cls-3" cx="129.63" cy="112.5" r="3.35"/><polygon class="cls-3" points="130.59 108.43 128.67 108.43 129.63 106.52 129.63 106.52 130.59 108.43"/><polygon class="cls-3" points="125.64 111.54 125.64 113.46 123.72 112.5 123.72 112.5 125.64 111.54"/><polygon class="cls-3" points="133.7 111.54 133.7 113.46 135.62 112.5 135.62 112.5 133.7 111.54"/><polygon class="cls-3" points="130.59 116.49 128.67 116.49 129.63 118.41 129.63 118.41 130.59 116.49"/><circle class="cls-2" cx="129.63" cy="112.5" r="1.44"/><polygon class="cls-6" points="71.2 82.09 56.83 96.7 56.83 95.5 70.24 82.09 71.2 82.09"/><polygon class="cls-6" points="68.08 82.09 56.83 93.58 56.83 92.39 67.13 82.09 68.08 82.09"/><polygon class="cls-6" points="114.78 106.04 100.17 120.4 101.37 120.4 114.78 106.99 114.78 106.04"/><polygon class="cls-6" points="114.78 109.15 103.29 120.4 104.48 120.4 114.78 110.11 114.78 109.15"/><text class="cls-7" transform="translate(67.82 156.84)">B<tspan class="cls-8" x="9.86" y="0">e</tspan><tspan class="cls-9" x="18.52" y="0">’ </tspan><tspan class="cls-10" x="29.01" y="0">T</tspan><tspan x="37.41" y="0">im</tspan></text></g></g></svg>