<svg xmlns="http://www.w3.org/2000/svg" viewBox="0 0 47.99 48.07"><defs><style>.cls-1{fill:#03697d;}.cls-2{fill:#524640;}.cls-3{fill:#675a54;}.cls-4{fill:#c46a41;}.cls-5{fill:#837068;}.cls-6,.cls-7{fill:#fff;}.cls-6{opacity:0.8;}.cls-7{font-size:6px;font-family:Futura-CondensedMedium, Futura;}.cls-8{letter-spacing:-0.01em;}.cls-9{letter-spacing:0.02em;}.cls-10{letter-spacing:0em;}</style></defs><title>logo_48</title><g id="Layer_2" data-name="Layer 2"><g id="Layer_2-2" data-name="Layer 2"><rect class="cls-1" width="47.99" height="48.07"/></g><g id="Layer_1-2" data-name="Layer 1"><path class="cls-2" d="M10.09,19.3H9.37a.84.84,0,1,0,0,1.68h.72a.84.84,0,1,0,0-1.68Zm-1,1.2a.36.36,0,1,1,.36-.36A.36.36,0,0,1,9.13,20.5Z"/><path class="cls-2" d="M38.83,19.3h-.72a.84.84,0,0,0,0,1.68h.72a.84.84,0,0,0,0-1.68Zm.24,1.2a.36.36,0,1,1,.36-.36A.36.36,0,0,1,39.07,20.5Z"/><rect class="cls-3" x="9.73" y="18.34" width="28.79" height="14.88"/><rect class="cls-2" x="9.73" y="31.77" width="28.79" height="1.44"/><rect class="cls-2" x="9.73" y="31.05" width="28.79" height="0.24"/><rect class="cls-2" x="12.13" y="31.29" width="0.24" height="0.48"/><rect class="cls-2" x="35.95" y="31.29" width="0.24" height="0.48"/><rect class="cls-2" x="9.73" y="18.34" width="28.79" height="0.24"/><rect class="cls-2" x="9.73" y="18.7" width="28.79" height="0.24"/><rect class="cls-2" x="9.73" y="19.06" width="28.79" height="0.24"/><path class="cls-2" d="M9.73,21.4h1.92a1.44,1.44,0,0,1,1.44,1.44v5.28a1.44,1.44,0,0,1-1.44,1.44H9.73a0,0,0,0,1,0,0V21.4A0,0,0,0,1,9.73,21.4Z"/><circle class="cls-4" cx="10.39" cy="23.14" r="0.24"/><circle class="cls-4" cx="10.39" cy="23.86" r="0.24"/><circle class="cls-4" cx="10.39" cy="24.58" r="0.24"/><circle class="cls-4" cx="10.39" cy="25.3" r="0.24"/><circle class="cls-4" cx="10.39" cy="26.02" r="0.24"/><circle class="cls-4" cx="10.39" cy="26.73" r="0.24"/><circle class="cls-4" cx="10.39" cy="27.45" r="0.24"/><circle class="cls-4" cx="10.39" cy="28.17" r="0.24"/><circle class="cls-4" cx="11.05" cy="23.86" r="0.24"/><circle class="cls-4" cx="11.05" cy="24.58" r="0.24"/><circle class="cls-4" cx="11.05" cy="25.3" r="0.24"/><circle class="cls-4" cx="11.05" cy="26.02" r="0.24"/><circle class="cls-4" cx="11.05" cy="26.73" r="0.24"/><circle class="cls-4" cx="11.05" cy="27.45" r="0.24"/><circle class="cls-4" cx="11.71" cy="24.58" r="0.24"/><circle class="cls-4" cx="11.71" cy="25.3" r="0.24"/><circle class="cls-4" cx="11.71" cy="26.02" r="0.24"/><circle class="cls-4" cx="11.71" cy="26.73" r="0.24"/><path class="cls-2" d="M35.17,21.4h1.92a1.44,1.44,0,0,1,1.44,1.44v5.28a1.44,1.44,0,0,1-1.44,1.44H35.17a0,0,0,0,1,0,0V21.4A0,0,0,0,1,35.17,21.4Z" transform="translate(73.69 50.95) rotate(180)"/><circle class="cls-4" cx="37.87" cy="27.81" r="0.24"/><circle class="cls-4" cx="37.87" cy="27.09" r="0.24"/><circle class="cls-4" cx="37.87" cy="26.37" r="0.24"/><circle class="cls-4" cx="37.87" cy="25.66" r="0.24"/><circle class="cls-4" cx="37.87" cy="24.94" r="0.24"/><circle class="cls-4" cx="37.87" cy="24.22" r="0.24"/><circle class="cls-4" cx="37.87" cy="23.5" r="0.24"/><circle class="cls-4" cx="37.87" cy="22.78" r="0.24"/><circle class="cls-4" cx="37.21" cy="27.09" r="0.24"/><circle class="cls-4" cx="37.21" cy="26.37" r="0.24"/><circle class="cls-4" cx="37.21" cy="25.66" r="0.24"/><circle class="cls-4" cx="37.21" cy="24.94" r="0.24"/><circle class="cls-4" cx="37.21" cy="24.22" r="0.24"/><circle class="cls-4" cx="37.21" cy="23.5" r="0.24"/><circle class="cls-4" cx="36.61" cy="26.37" r="0.24"/><circle class="cls-4" cx="36.61" cy="25.66" r="0.24"/><circle class="cls-4" cx="36.61" cy="24.94" r="0.24"/><circle class="cls-4" cx="36.61" cy="24.22" r="0.24"/><rect class="cls-5" x="9.73" y="16.9" width="28.79" height="1.44"/><rect class="cls-5" x="9.73" y="15.46" width="15.84" height="1.44"/><rect class="cls-5" x="26.83" y="15.46" width="4.02" height="1.44"/><rect class="cls-2" x="26.83" y="15.46" width="0.24" height="1.44"/><rect class="cls-2" x="27.25" y="15.46" width="0.24" height="1.44"/><rect class="cls-2" x="27.67" y="15.46" width="0.24" height="1.44"/><rect class="cls-2" x="28.09" y="15.46" width="0.24" height="1.44"/><rect class="cls-2" x="28.51" y="15.46" width="0.24" height="1.44"/><rect class="cls-2" x="28.93" y="15.46" width="0.24" height="1.44"/><rect class="cls-2" x="29.35" y="15.46" width="0.24" height="1.44"/><rect class="cls-2" x="29.77" y="15.46" width="0.24" height="1.44"/><rect class="cls-2" x="30.19" y="15.46" width="0.24" height="1.44"/><rect class="cls-2" x="30.61" y="15.46" width="0.24" height="1.44"/><rect class="cls-2" x="13.33" y="15.94" width="3.84" height="1.92"/><rect class="cls-5" x="13.81" y="16.42" width="2.88" height="0.96"/><rect class="cls-3" x="31.81" y="15.94" width="3.84" height="0.96"/><rect class="cls-2" x="31.81" y="16.18" width="3.84" height="0.24"/><rect class="cls-2" x="32.29" y="15.46" width="2.88" height="0.48"/><rect class="cls-2" x="13.57" y="19.84" width="15.84" height="10.8"/><rect class="cls-5" x="14.23" y="20.44" width="14.52" height="9.6"/><circle class="cls-2" cx="32.47" cy="28.05" r="1.92"/><circle class="cls-3" cx="32.47" cy="28.05" r="0.84"/><polygon class="cls-3" points="32.71 27.04 32.23 27.04 32.47 26.55 32.47 26.55 32.71 27.04"/><polygon class="cls-3" points="31.47 27.82 31.47 28.29 30.99 28.05 30.99 28.05 31.47 27.82"/><polygon class="cls-3" points="33.49 27.82 33.49 28.29 33.97 28.05 33.97 28.05 33.49 27.82"/><polygon class="cls-3" points="32.71 29.05 32.23 29.05 32.47 29.53 32.47 29.53 32.71 29.05"/><circle class="cls-2" cx="32.47" cy="28.05" r="0.36"/><polygon class="cls-6" points="17.83 20.44 14.23 24.1 14.23 23.8 17.59 20.44 17.83 20.44"/><polygon class="cls-6" points="17.05 20.44 14.23 23.32 14.23 23.02 16.81 20.44 17.05 20.44"/><polygon class="cls-6" points="28.75 26.43 25.09 30.03 25.39 30.03 28.75 26.68 28.75 26.43"/><polygon class="cls-6" points="28.75 27.21 25.87 30.03 26.17 30.03 28.75 27.45 28.75 27.21"/><text class="cls-7" transform="translate(16.99 39.16)">B<tspan class="cls-8" x="2.47" y="0">e</tspan><tspan x="4.64" y="0">’ </tspan><tspan class="cls-9" x="7.27" y="0">T</tspan><tspan class="cls-10" x="9.37" y="0">im</tspan></text></g></g></svg>