<svg xmlns="http://www.w3.org/2000/svg" viewBox="0 0 67.55 110.75"><defs><style>.cls-1{fill:#bf954b;}.cls-2{fill:#70441c;}</style></defs><title>oor_128</title><g id="Layer_2" data-name="Layer 2"><g id="Layer_1-2" data-name="Layer 1"><path class="cls-1" d="M17.82,6C26.2-.31,38.1-2,47.45,2.67,54.66,6.28,59.79,13.16,63,20.56c6.84,15.77,5.7,34.43-1.49,50s-20,28.26-35,36.78a23.21,23.21,0,0,1-8.24,3.25c-2.94.4-6.19-.35-8.16-2.58-3-3.42-2-8.67-1-13.11.69-2.86,1.29-6,.65-8.92s-2.56-4.94-4.18-7.17A29.71,29.71,0,0,1,0,60.62C.19,55.22,1.82,50,2.83,44.74c.94-4.92.47-9.78,1.24-14.67C5.53,20.7,10.13,11.71,17.82,6Z"/><path class="cls-2" d="M25.39,65.29c-2.32-3.06-8.18-11.41-13-8.24a4.23,4.23,0,0,0-1.48,4.83c1.12,3.85,8,4.79,4.67,9.17-1.32,1.75-3.27,2.34-3.45,4.84a4.83,4.83,0,0,0,3,4.61c2.12,1,4.31.57,6.38-.39,2.24-1,4.45-3.41,7-3.47,2.17-.05,4.21,1.51,6.38,1.69,6,.49,8.14-6.26,8.13-11.1C43,60,39.09,53.41,33.9,48.58c-5.82-5.41-18-9.31-18.12-18.54-.17-12.31,18.9-17,27.73-11.75,10,5.93,11.23,20.61,11.62,31,.42,11.1-2.06,22.35-10.75,29.9-1.65,1.43.76,3.83,2.4,2.4,12-10.46,12.87-27,10.87-41.76S48.33,10.68,31.21,13.2c-6.28.92-12.87,3.2-16.46,8.78a14.22,14.22,0,0,0,.54,16.32c4.48,5.91,12.21,8.52,17.37,13.79a23.87,23.87,0,0,1,6.62,11.62c.46,2.21.92,7-.71,9a8.92,8.92,0,0,1-5,1.87c-1.12-.12-2.17-.88-3.29-1.09-3.49-.64-5.76.88-8.64,2.58-.64.38-2.14,1.55-2.86,1.49-6.42-.47-1.92-2.92-1.24-3.76.86-1.07,2.09-1.61,2.67-2.93a5,5,0,0,0-.68-5.15c-.88-1.19-3.86-2.52-2.63-3.43C18.66,61,21.42,65.63,22.46,67c1.31,1.72,4.26,0,2.93-1.71Z"/></g></g></svg>