<svg xmlns="http://www.w3.org/2000/svg" viewBox="0 0 70.01 113.99"><defs><style>.cls-1{fill:#ee766f;}.cls-2{fill:#e28d8b;}.cls-3{fill:#f07d7b;}.cls-4{fill:#cd8e88;}.cls-5{fill:#c85147;}</style></defs><title>rkasteel_128</title><g id="Layer_2" data-name="Layer 2"><g id="Layer_1-2" data-name="Layer 1"><g id="Kasteel"><rect class="cls-1" x="25.3" y="28.93" width="8.06" height="30.03" rx="4.03" ry="4.03"/><rect class="cls-2" x="28.77" width="1.18" height="17.51" rx="0.59" ry="0.59"/><rect class="cls-3" x="27.12" y="15.7" width="4.48" height="16.55" rx="1.44" ry="1.44"/><rect class="cls-2" x="39.47" width="1.18" height="17.51" rx="0.59" ry="0.59"/><rect class="cls-1" x="35.88" y="28.51" width="8.36" height="30.03" rx="4.03" ry="4.03"/><rect class="cls-3" x="37.62" y="15.28" width="4.88" height="16.55" rx="1.44" ry="1.44"/><rect class="cls-4" x="14.4" y="52" width="40.47" height="61.99" rx="20.23" ry="20.23"/><rect class="cls-5" x="23.94" y="76.57" width="21.61" height="32.7" rx="8.34" ry="8.34"/><rect class="cls-1" x="49.91" y="66.15" width="20.1" height="46.68" rx="10.05" ry="10.05"/><rect class="cls-1" y="64.16" width="20.1" height="48.67" rx="10.05" ry="10.05"/><rect class="cls-3" x="6.37" y="42.71" width="7.16" height="26.82" rx="3.58" ry="3.58"/><rect class="cls-3" x="56.6" y="42.71" width="7.16" height="26.82" rx="3.58" ry="3.58"/><rect class="cls-2" x="8.43" y="27.58" width="2.94" height="18.07" rx="1.47" ry="1.47"/><rect class="cls-2" x="58.71" y="27.58" width="2.94" height="18.07" rx="1.47" ry="1.47"/></g></g></g></svg>