<svg xmlns="http://www.w3.org/2000/svg" viewBox="0 0 53.33 121.36"><defs><style>.cls-1{fill:none;stroke-width:5.49px;}.cls-1,.cls-3{stroke:#7ebc49;stroke-miterlimit:10;}.cls-2,.cls-3{fill:#7ebc49;}.cls-3{stroke-width:4.05px;}</style></defs><title>slang_128</title><g id="Layer_2" data-name="Layer 2"><g id="Layer_1-2" data-name="Layer 1"><path class="cls-1" d="M25.36,118.58c3.11-.13,6.38-.31,9-2s4.31-5.3,2.73-8c-1.71-2.9-5.79-3-9.15-2.81s-7.49-.14-8.94-3.17c-1.34-2.79.75-6.25,3.56-7.54s6.06-1,9.15-.81,6.37.35,9.08-1.15a8.63,8.63,0,0,0,2.83-11.89C41.39,78,37,76.71,33,77s-7.75,1.8-11.56,3S13.55,82,9.7,81s-7.26-4.61-6.94-8.59c.24-3,2.57-5.59,5.29-7s5.81-1.79,8.83-2.17l14.58-1.87A41.93,41.93,0,0,0,42,59.07c3.33-1.35,6.41-3.71,7.85-7s.88-7.57-1.88-9.87c-3.38-2.81-8.55-1.83-12.38.32s-7.12,5.31-11.25,6.81a15.65,15.65,0,0,1-7.87.73,11.53,11.53,0,0,1-7.67-4.49A7.61,7.61,0,0,1,8.55,37c1.65-2.26,4.58-3.17,7.35-3.57s5.66-.46,8.21-1.61c3.9-1.75,6.38-5.81,7.3-10s.54-8.52.14-12.78"/><path class="cls-2" d="M32,0c-1,.08-3.35,2.93-3.35,2.93-1.84.92-1.51,4.53-1.51,4.53-6.2,8.38.59,13.83.59,13.83s4.37,4,8.55,0c0,0,6.79-5.45.59-13.83,0,0,.34-3.6-1.51-4.53C35.36,2.93,33,.08,32,0"/><rect class="cls-3" x="23.53" y="117.22" width="1.5" height="2.74" rx="0.72" ry="0.72" transform="translate(-94.3 142.87) rotate(-90)"/></g></g></svg>